# xmcd
#
# Track frame offsets: 
#        150
#        12348
#        36247
#        54894
#        71781
#        91210
#        105287
#        119338
#        136767
#        152209
#        170527
#        185366
#        203176
#        224973
#
# Disc length: 3247 seconds
#
# Revision: 0
# Processed by: cddbd v1.5.2PL0 Copyright (c) Steve Scherf et al.
# Submitted via: ExactAudioCopy v0.95b4
#
DISCID=c40cad0e
DTITLE=David Mello and Robin Worthley - Together
DYEAR=2000
DGENRE=Blues
TTITLE0=Deep River Blues
TTITLE1=Days of '49
TTITLE2=Peepin' and Hidin'
TTITLE3=One Kind Favor
TTITLE4=Giant Step
TTITLE5=Good Mornin' Little Schoolgirl
TTITLE6=She Just Wants to Dance
TTITLE7=Cake Walk Into Town
TTITLE8=Further On Up the Road
TTITLE9=Every Morning
TTITLE10=Ready for the Times to Get Better
TTITLE11=St. James Infirmary
TTITLE12=I'm Moving Up To the Country
TTITLE13=So Old Now
EXTD=
EXTT0=
EXTT1=
EXTT2=
EXTT3=
EXTT4=
EXTT5=
EXTT6=
EXTT7=
EXTT8=
EXTT9=
EXTT10=
EXTT11=
EXTT12=
EXTT13=
PLAYORDER=
